<svg xmlns="http://www.w3.org/2000/svg" xmlns:xlink="http://www.w3.org/1999/xlink" preserveAspectRatio="xMidYMid" width="15.68" height="14.813" viewBox="0 0 15.68 14.813">
  <defs>
    <style>
      .cls-1 {
        fill: #fff;
        fill-rule: evenodd;
      }
    </style>
  </defs>
  <path d="M13.860,14.821 L10.397,14.821 L10.397,8.792 L12.037,8.792 L12.402,6.553 L10.397,6.553 C10.397,6.553 10.397,5.699 10.397,5.347 C10.397,4.994 10.593,4.658 11.126,4.658 C11.658,4.658 12.402,4.658 12.402,4.658 L12.402,2.591 C12.402,2.591 10.823,2.591 10.397,2.591 C9.970,2.591 7.844,2.637 7.844,5.002 C7.844,5.946 7.844,6.553 7.844,6.553 L6.568,6.553 L6.568,8.792 L7.844,8.792 L7.844,14.821 L1.829,14.821 C0.822,14.821 0.006,14.050 0.006,13.099 L0.006,1.729 C0.006,0.778 0.822,0.007 1.829,0.007 L13.860,0.007 C14.867,0.007 15.683,0.778 15.683,1.729 L15.683,13.099 C15.683,14.050 14.867,14.821 13.860,14.821 Z" class="cls-1"/>
</svg>
