<svg xmlns="http://www.w3.org/2000/svg" xmlns:xlink="http://www.w3.org/1999/xlink" preserveAspectRatio="xMidYMid" width="15.69" height="14.813" viewBox="0 0 15.69 14.813">
  <defs>
    <style>
      .cls-1 {
        fill: #fff;
        fill-rule: evenodd;
      }
    </style>
  </defs>
  <path d="M13.031,14.821 L2.662,14.821 C1.196,14.821 0.007,13.698 0.007,12.313 L0.007,5.849 L3.860,5.849 C3.648,6.331 3.529,6.859 3.529,7.414 C3.529,9.667 5.462,11.494 7.846,11.494 C10.231,11.494 12.164,9.667 12.164,7.414 C12.164,6.859 12.044,6.331 11.832,5.849 L15.685,5.849 L15.685,12.313 C15.685,13.698 14.497,14.821 13.031,14.821 ZM10.573,5.849 L10.573,5.849 C10.573,5.849 10.573,5.849 10.573,5.849 C10.707,6.057 10.810,6.282 10.888,6.519 C10.903,6.560 10.917,6.601 10.929,6.643 C10.999,6.891 11.047,7.146 11.047,7.414 C11.047,9.085 9.614,10.439 7.846,10.439 C6.078,10.439 4.645,9.085 4.645,7.414 C4.645,7.146 4.694,6.891 4.763,6.643 C4.775,6.601 4.790,6.560 4.804,6.519 C4.882,6.282 4.985,6.057 5.119,5.849 C5.119,5.849 5.119,5.849 5.119,5.849 L5.119,5.849 C5.528,5.215 6.174,4.741 6.944,4.526 C6.980,4.516 7.014,4.504 7.050,4.495 C7.306,4.433 7.570,4.389 7.846,4.389 C8.123,4.389 8.387,4.433 8.643,4.495 C8.679,4.504 8.713,4.516 8.749,4.526 C8.993,4.594 9.225,4.687 9.441,4.806 C9.441,4.806 9.441,4.806 9.441,4.806 L9.441,4.806 C9.906,5.060 10.294,5.416 10.573,5.849 ZM7.846,3.334 C6.517,3.334 5.344,3.914 4.552,4.806 L0.007,4.806 L0.007,2.515 C0.007,1.130 1.196,0.007 2.662,0.007 L13.031,0.007 C14.497,0.007 15.685,1.130 15.685,2.515 L15.685,4.806 L11.141,4.806 C10.349,3.914 9.175,3.334 7.846,3.334 ZM13.686,3.368 L13.686,1.295 C13.686,1.109 13.527,0.960 13.332,0.960 L11.137,0.960 C10.942,0.960 10.784,1.109 10.784,1.295 L10.784,3.368 C10.784,3.553 10.942,3.702 11.137,3.702 L13.332,3.702 C13.527,3.702 13.686,3.553 13.686,3.368 Z" class="cls-1"/>
</svg>
