<svg xmlns="http://www.w3.org/2000/svg" preserveAspectRatio="xMidYMid" width="16" height="13"><path d="M16 1.538a6.554 6.554 0 0 1-1.885.516A3.293 3.293 0 0 0 15.558.239a6.568 6.568 0 0 1-2.085.796A3.282 3.282 0 0 0 7.88 4.029 9.324 9.324 0 0 1 1.114.599 3.28 3.28 0 0 0 2.13 4.981a3.266 3.266 0 0 1-1.487-.41l-.001.041a3.283 3.283 0 0 0 2.634 3.217 3.295 3.295 0 0 1-1.483.057 3.287 3.287 0 0 0 3.067 2.279A6.59 6.59 0 0 1 0 11.524a9.295 9.295 0 0 0 5.032 1.475c6.038 0 9.339-5.002 9.339-9.338 0-.142-.003-.284-.009-.425A6.678 6.678 0 0 0 16 1.538z" fill="#fff" fill-rule="evenodd"/></svg>
