<svg xmlns="http://www.w3.org/2000/svg" xmlns:xlink="http://www.w3.org/1999/xlink" preserveAspectRatio="xMidYMid" width="26.35" height="14.687" viewBox="0 0 26.35 14.687">
  <defs>
    <style>
      .cls-1 {
        fill: #fff;
        fill-rule: evenodd;
      }
    </style>
  </defs>
  <path d="M12.905,14.488 L14.479,14.488 C14.479,14.488 14.954,14.437 15.197,14.184 C15.420,13.951 15.413,13.514 15.413,13.514 C15.413,13.514 15.382,11.468 16.362,11.167 C17.329,10.870 18.569,13.144 19.884,14.019 C20.879,14.680 21.634,14.535 21.634,14.535 L25.151,14.488 C25.151,14.488 26.990,14.378 26.118,12.977 C26.046,12.863 25.610,11.940 23.503,10.046 C21.298,8.064 21.594,8.385 24.250,4.956 C25.867,2.867 26.514,1.593 26.312,1.047 C26.119,0.527 24.929,0.664 24.929,0.664 L20.970,0.688 C20.970,0.688 20.677,0.649 20.459,0.775 C20.246,0.898 20.110,1.186 20.110,1.186 C20.110,1.186 19.483,2.802 18.647,4.177 C16.884,7.076 16.179,7.230 15.891,7.050 C15.221,6.630 15.388,5.364 15.388,4.464 C15.388,1.654 15.828,0.482 14.531,0.179 C14.101,0.078 13.784,0.012 12.684,0.001 C11.271,-0.013 10.075,0.005 9.398,0.326 C8.948,0.540 8.600,1.016 8.812,1.043 C9.074,1.077 9.666,1.198 9.981,1.613 C10.386,2.147 10.372,3.348 10.372,3.348 C10.372,3.348 10.605,6.656 9.828,7.067 C9.294,7.349 8.562,6.773 6.990,4.143 C6.185,2.795 5.577,1.305 5.577,1.305 C5.577,1.305 5.460,1.027 5.251,0.878 C4.997,0.697 4.643,0.640 4.643,0.640 L0.880,0.664 C0.880,0.664 0.316,0.679 0.108,0.917 C-0.076,1.129 0.093,1.567 0.093,1.567 C0.093,1.567 3.039,8.242 6.374,11.605 C9.432,14.690 12.905,14.488 12.905,14.488 Z" class="cls-1"/>
</svg>
