<svg xmlns="http://www.w3.org/2000/svg" preserveAspectRatio="xMidYMid" width="8" height="16"><path d="M3.267.365a2.544 2.544 0 0 1 .608-.241l.655-.125h.43l3.028.229H8l-.31 2.698h-.012l-1.669-.171h-.048l-.167.023-.059.023-.191.091a.155.155 0 0 0-.096.058l-.143.148a.623.623 0 0 0-.083.137.859.859 0 0 0-.095.321c-.008.053-.012.11-.012.172l.023 1.692 2.456.023-.357 2.676-2.122.08v7.788l-.012.012H1.788V8.13H0V5.443h1.717V5.42l.012-.034.059-2.871.024-.161v-.079l.024-.081a.62.62 0 0 1 .048-.171.487.487 0 0 1 .071-.149c.032-.114.076-.217.131-.309.048-.098.108-.194.179-.285.056-.084.123-.165.203-.241.071-.083.147-.16.226-.228V.799l.573-.434z" fill="#fff" fill-rule="evenodd"/></svg>