<svg xmlns="http://www.w3.org/2000/svg" preserveAspectRatio="xMidYMid" width="15.69" height="14.813"><path d="M13.031 14.821H2.662c-1.466 0-2.655-1.123-2.655-2.508V5.849H3.86a3.874 3.874 0 0 0-.331 1.565c0 2.253 1.933 4.08 4.317 4.08 2.385 0 4.318-1.827 4.318-4.08 0-.555-.12-1.083-.332-1.565h3.853v6.464c0 1.385-1.188 2.508-2.654 2.508zm-2.458-8.972c.134.208.237.433.315.67a2.821 2.821 0 0 1 .159.895c0 1.671-1.433 3.025-3.201 3.025S4.645 9.085 4.645 7.414c0-.268.049-.523.118-.771.012-.042.027-.083.041-.124.078-.237.181-.462.315-.67a3.176 3.176 0 0 1 1.825-1.323c.036-.01.07-.022.106-.031.256-.062.52-.106.796-.106.277 0 .541.044.797.106.036.009.07.021.106.031.244.068.476.161.692.28.465.254.853.61 1.132 1.043zM7.846 3.334a4.39 4.39 0 0 0-3.294 1.472H.007V2.515C.007 1.13 1.196.007 2.662.007h10.369c1.466 0 2.654 1.123 2.654 2.508v2.291h-4.544a4.392 4.392 0 0 0-3.295-1.472zm5.84.034V1.295a.345.345 0 0 0-.354-.335h-2.195a.344.344 0 0 0-.353.335v2.073c0 .185.158.334.353.334h2.195c.195 0 .354-.149.354-.334z" fill="#fff" fill-rule="evenodd"/></svg>