<svg xmlns="http://www.w3.org/2000/svg" preserveAspectRatio="xMidYMid" width="8.59" height="16.22"><defs><filter id="a" filterUnits="userSpaceOnUse"><feOffset dy="-1" in="SourceAlpha"/><feGaussianBlur result="dropBlur"/><feFlood flood-color="#dd7a00"/><feComposite operator="in" in2="dropBlur" result="dropShadowComp"/><feComposite in="SourceGraphic" result="shadowed"/></filter></defs><path d="M8.484 9.495c.012 0-.686 1.154-3.374 1.566-.023.012 2.608 2.676 2.608 2.676s.503.516-.08 1.167c0 .023-.595.732-1.361.034l-2.002-1.967-2.07 2.07s-.618.573-1.269-.103c-.012 0-.561-.491-.149-1.143-.012-.012 2.665-2.711 2.665-2.711S1.416 10.889.101 9.586c-.023-.012-.332-.492.057-1.075 0-.012.438-.753 1.018-.377 0 0 3.042 2.515 6.107 0 .012 0 .569-.413 1.041.274 0 .057.48.481.16 1.087zM4.205 8.213A3.643 3.643 0 1 1 4.206.928a3.643 3.643 0 0 1-.001 7.285zm.035-5.418a1.74 1.74 0 1 0 0 3.48 1.74 1.74 0 0 0 0-3.48z" fill="#fff" filter="url(#a)" fill-rule="evenodd"/></svg>