<svg xmlns="http://www.w3.org/2000/svg" preserveAspectRatio="xMidYMid" width="26.35" height="14.687"><path d="M12.905 14.488h1.574s.475-.051.718-.304c.223-.233.216-.67.216-.67s-.031-2.046.949-2.347c.967-.297 2.207 1.977 3.522 2.852.995.661 1.75.516 1.75.516l3.517-.047s1.839-.11.967-1.511c-.072-.114-.508-1.037-2.615-2.931-2.205-1.982-1.909-1.661.747-5.09 1.617-2.089 2.264-3.363 2.062-3.909-.193-.52-1.383-.383-1.383-.383L20.97.688s-.293-.039-.511.087c-.213.123-.349.411-.349.411s-.627 1.616-1.463 2.991c-1.763 2.899-2.468 3.053-2.756 2.873-.67-.42-.503-1.686-.503-2.586 0-2.81.44-3.982-.857-4.285-.43-.101-.747-.167-1.847-.178-1.413-.014-2.609.004-3.286.325-.45.214-.798.69-.586.717.262.034.854.155 1.169.57.405.534.391 1.735.391 1.735s.233 3.308-.544 3.719c-.534.282-1.266-.294-2.838-2.924-.805-1.348-1.413-2.838-1.413-2.838s-.117-.278-.326-.427C4.997.697 4.643.64 4.643.64L.88.664S.316.679.108.917c-.184.212-.015.65-.015.65s2.946 6.675 6.281 10.038c3.058 3.085 6.531 2.883 6.531 2.883z" fill="#fff" fill-rule="evenodd"/></svg>