<svg xmlns="http://www.w3.org/2000/svg" preserveAspectRatio="xMidYMid" width="17" height="10"><path d="M8.318 9.853h1.016s.307-.035.464-.207c.144-.158.14-.455.14-.455s-.02-1.392.612-1.596c.624-.202 1.425 1.345 2.274 1.939.643.45 1.13.351 1.13.351l2.271-.032s1.187-.075.624-1.028c-.046-.077-.328-.704-1.688-1.993-1.424-1.347-1.233-1.129.482-3.461 1.044-1.42 1.462-2.287 1.331-2.658-.124-.354-.892-.261-.892-.261l-2.556.016s-.19-.026-.33.06c-.138.084-.226.279-.226.279s-.405 1.099-.944 2.034c-1.138 1.972-1.594 2.077-1.78 1.954-.433-.286-.324-1.146-.324-1.759 0-1.911.284-2.707-.554-2.914C9.091.054 8.886.009 8.175.001c-.912-.009-1.684.003-2.121.221-.291.145-.515.469-.379.489.17.022.552.105.755.386.262.364.253 1.18.253 1.18s.15 2.25-.352 2.53c-.344.191-.817-.2-1.832-1.99-.52-.915-.912-1.929-.912-1.929s-.076-.189-.211-.29a1.044 1.044 0 0 0-.393-.162L.554.452S.19.462.056.624c-.12.145-.01.442-.01.442s1.902 4.539 4.055 6.827c1.975 2.097 4.217 1.96 4.217 1.96z" fill="#fff" fill-rule="evenodd"/></svg>